<svg width="234" height="225" viewBox="0 0 234 225" fill="none" xmlns="http://www.w3.org/2000/svg">
<path d="M229.456 170.475V203.761C229.456 208.174 227.632 212.408 224.387 215.529C221.141 218.649 216.738 220.403 212.148 220.403H177.532" stroke="url(#paint0_linear_773_2)" stroke-width="8" stroke-linecap="round" stroke-linejoin="round"/>
<path d="M177.532 4.047H212.148C216.738 4.047 221.141 5.80044 224.387 8.92157C227.632 12.0427 229.456 16.2758 229.456 20.6898V53.9755" stroke="url(#paint1_linear_773_2)" stroke-width="8" stroke-linecap="round" stroke-linejoin="round"/>
<path d="M4.4519 53.9755V20.6898C4.4519 16.2758 6.27541 12.0427 9.52125 8.92157C12.7671 5.80044 17.1694 4.047 21.7598 4.047H56.3755" stroke="url(#paint2_linear_773_2)" stroke-width="8" stroke-linecap="round" stroke-linejoin="round"/>
<path d="M56.3755 220.403H21.7598C17.1694 220.403 12.7671 218.649 9.52125 215.529C6.27541 212.408 4.4519 208.174 4.4519 203.761V170.475" stroke="url(#paint3_linear_773_2)" stroke-width="8" stroke-linecap="round" stroke-linejoin="round"/>
<path d="M77.3281 139.574L62.3669 168.641C62.2244 168.948 62.1531 169.269 62.1531 169.605C62.1531 169.942 62.2244 170.263 62.3669 170.57C62.5127 170.875 62.7166 171.14 62.9801 171.361C63.2436 171.583 63.5419 171.742 63.875 171.84C72.3664 174.236 80.9872 176.053 89.7372 177.294C98.4888 178.536 107.287 179.186 116.131 179.247H117.494C126.575 179.247 135.61 178.627 144.6 177.386C153.591 176.145 162.443 174.297 171.162 171.84C171.495 171.742 171.793 171.583 172.057 171.361C172.32 171.14 172.524 170.875 172.67 170.57C172.812 170.263 172.884 169.942 172.884 169.605C172.884 169.269 172.812 168.948 172.67 168.641L157.659 139.574C153.572 131.602 143.062 125.465 130.339 123.112C132.37 122.351 134.312 121.42 136.169 120.32C138.025 119.218 139.763 117.964 141.384 116.558C143.004 115.153 144.481 113.616 145.813 111.952C147.147 110.287 148.314 108.519 149.315 106.65C150.009 106.745 150.707 106.792 151.408 106.792C151.859 106.792 152.308 106.771 152.757 106.727C153.206 106.684 153.654 106.621 154.096 106.536C154.539 106.451 154.976 106.345 155.407 106.218C155.839 106.092 156.264 105.945 156.68 105.778C157.097 105.611 157.505 105.427 157.903 105.221C158.3 105.016 158.688 104.791 159.063 104.55C159.439 104.308 159.8 104.047 160.15 103.771C160.499 103.495 160.833 103.203 161.152 102.895C161.472 102.586 161.776 102.263 162.062 101.926C162.349 101.591 162.617 101.241 162.868 100.878C163.12 100.515 163.352 100.142 163.565 99.7569C163.777 99.3731 163.971 98.9797 164.144 98.5767C164.318 98.1737 164.47 97.7642 164.601 97.3467C164.734 96.9292 164.843 96.5069 164.932 96.0798C165.02 95.651 165.088 95.2207 165.133 94.7872C165.178 94.352 165.201 93.9169 165.201 93.4817V87.9789C165.206 87.3398 165.163 86.7055 165.07 86.0729C164.979 85.4418 164.84 84.8204 164.654 84.207C164.468 83.5952 164.238 82.9995 163.961 82.4198C163.686 81.8402 163.368 81.2846 163.007 80.7499C162.647 80.2152 162.248 79.7094 161.812 79.2308C161.374 78.7523 160.904 78.3075 160.398 77.8965C159.895 77.4854 159.363 77.1113 158.801 76.7757C158.241 76.4385 157.657 76.1446 157.051 75.8909C156.88 74.7509 156.656 73.6204 156.381 72.4996C156.105 71.3788 155.778 70.2725 155.4 69.1806C155.022 68.0887 154.595 67.0144 154.118 65.9595C153.64 64.9045 153.115 63.872 152.542 62.862C151.97 61.852 151.352 60.8693 150.687 59.9123C150.024 58.9553 149.317 58.0288 148.568 57.1344C147.819 56.2384 147.03 55.3777 146.2 54.5491C145.371 53.7222 144.506 52.9322 143.604 52.1791C142.701 51.4276 141.767 50.7147 140.799 50.0435C139.831 49.3723 138.835 48.7428 137.809 48.1567C136.782 47.5722 135.731 47.0311 134.656 46.5365C133.58 46.042 132.483 45.594 131.366 45.1942C130.249 44.7943 129.115 44.4427 127.965 44.1408C126.815 43.8389 125.654 43.5868 124.48 43.3845C123.309 43.1822 122.129 43.0312 120.941 42.9317C119.754 42.8321 118.564 42.784 117.373 42.7856C116.181 42.7888 114.993 42.8434 113.806 42.9493C112.62 43.0537 111.44 43.2111 110.268 43.4182C109.097 43.6254 107.937 43.8839 106.788 44.1906C105.64 44.4989 104.508 44.8553 103.392 45.26C102.277 45.6662 101.183 46.1191 100.11 46.6184C99.0374 47.1178 97.9884 47.6638 96.9659 48.2547C95.9434 48.844 94.9491 49.4782 93.9846 50.1543C93.0201 50.8303 92.0887 51.548 91.1905 52.3043C90.2923 53.0606 89.4306 53.8555 88.607 54.6872C87.7817 55.5174 86.9962 56.3829 86.2521 57.2821C85.508 58.1813 84.8054 59.111 84.1475 60.0697C83.4879 61.0299 82.8747 62.0158 82.3063 63.029C81.7395 64.0406 81.2192 65.0763 80.7469 66.1345C80.2762 67.1911 79.8537 68.2669 79.4808 69.362C79.1079 70.4555 78.7864 71.5635 78.5163 72.6843C78.2478 73.8067 78.0291 74.9387 77.8634 76.0788C77.2933 76.3518 76.7448 76.6617 76.2194 77.0101C75.6941 77.357 75.1953 77.7375 74.723 78.1518C74.2523 78.5661 73.8132 79.0093 73.4055 79.4829C72.9978 79.955 72.6266 80.4528 72.2902 80.9763C71.9555 81.4997 71.6588 82.0425 71.4003 82.6061C71.1434 83.1681 70.9263 83.7462 70.7523 84.3387C70.5767 84.9296 70.4458 85.5301 70.3579 86.1403C70.2701 86.7505 70.2253 87.3623 70.2253 87.9789V93.4576C70.2237 94.1063 70.2717 94.7518 70.3695 95.3941C70.4656 96.038 70.6115 96.6691 70.8037 97.2921C70.9943 97.9135 71.2329 98.5189 71.5163 99.1066C71.7997 99.6959 72.1261 100.261 72.494 100.804C72.8636 101.347 73.2713 101.86 73.7171 102.345C74.1645 102.83 74.6434 103.281 75.1588 103.699C75.6726 104.116 76.2161 104.495 76.7878 104.836C77.3579 105.178 77.9529 105.477 78.5693 105.733V111.753C78.5693 111.907 78.5842 112.062 78.6157 112.213C78.6472 112.363 78.6936 112.511 78.7549 112.654C78.8163 112.795 78.8908 112.932 78.9787 113.06C79.0681 113.189 79.1692 113.308 79.2819 113.417C79.3946 113.526 79.5172 113.622 79.6498 113.709C79.7841 113.794 79.9233 113.866 80.0708 113.926C80.2182 113.985 80.3707 114.03 80.5281 114.061C80.6839 114.09 80.843 114.106 81.0021 114.106H91.0497C92.9256 116.103 95.0137 117.865 97.3155 119.39C99.6174 120.916 102.07 122.163 104.674 123.136C91.9015 125.487 81.4164 131.602 77.3281 139.574ZM160.506 87.9789V93.4576C160.504 93.745 160.49 94.0325 160.46 94.3183C160.43 94.6041 160.385 94.8883 160.327 95.1693C160.267 95.4519 160.196 95.7297 160.108 96.0059C160.022 96.2805 159.921 96.5503 159.807 96.8168C159.692 97.0818 159.565 97.3403 159.424 97.594C159.283 97.8477 159.131 98.0934 158.965 98.3326C158.799 98.5719 158.622 98.8015 158.431 99.0247C158.242 99.2463 158.044 99.4582 157.833 99.6622C157.623 99.8645 157.402 100.057 157.172 100.239C156.941 100.422 156.703 100.592 156.454 100.752C156.207 100.911 155.952 101.059 155.69 101.194C155.427 101.329 155.158 101.453 154.883 101.562C154.608 101.673 154.328 101.769 154.045 101.852C153.76 101.936 153.471 102.005 153.18 102.061C152.888 102.117 152.593 102.159 152.298 102.186C152.001 102.215 151.705 102.23 151.408 102.23C152.091 100.385 152.608 98.4964 152.954 96.5663C153.302 94.6346 153.475 92.6901 153.475 90.7295C153.475 88.7705 153.302 86.8243 152.954 84.8943C152.608 82.9626 152.091 81.0742 151.408 79.2292C151.705 79.2276 152.001 79.2405 152.298 79.2678C152.593 79.2951 152.888 79.3352 153.18 79.3898C153.471 79.4444 153.76 79.5135 154.045 79.5953C154.33 79.6772 154.61 79.7736 154.885 79.8828C155.16 79.992 155.43 80.1124 155.692 80.2473C155.955 80.3821 156.211 80.5283 156.459 80.6872C156.706 80.8462 156.945 81.0164 157.177 81.1995C157.407 81.3809 157.628 81.572 157.838 81.7759C158.049 81.9782 158.249 82.1902 158.438 82.4118C158.627 82.6334 158.804 82.8646 158.97 83.1039C159.136 83.3415 159.29 83.5872 159.431 83.8409C159.571 84.0946 159.699 84.3547 159.812 84.6197C159.926 84.8846 160.027 85.1544 160.113 85.4306C160.2 85.7052 160.272 85.9829 160.33 86.2655C160.388 86.5482 160.433 86.8324 160.461 87.1182C160.491 87.404 160.506 87.6914 160.506 87.9789ZM117.494 47.3876C118.652 47.3844 119.807 47.4374 120.96 47.5449C122.112 47.6525 123.257 47.8147 124.392 48.0315C125.529 48.2483 126.651 48.5196 127.76 48.844C128.869 49.1683 129.957 49.5457 131.026 49.9744C132.095 50.4032 133.141 50.8817 134.162 51.4115C135.182 51.9398 136.174 52.5163 137.135 53.1409C138.096 53.7639 139.024 54.4319 139.915 55.1449C140.809 55.8578 141.664 56.6125 142.479 57.4057C143.705 58.5827 144.837 59.8384 145.873 61.1744C146.909 62.5104 147.839 63.9122 148.664 65.3798C149.487 66.8474 150.197 68.3665 150.79 69.9337C151.385 71.5025 151.859 73.1034 152.21 74.738H151.481C150.78 74.738 150.082 74.7846 149.388 74.8793C149.013 74.1776 148.614 73.4887 148.191 72.8143C147.767 72.1399 147.321 71.4784 146.851 70.8329C146.38 70.1874 145.888 69.5579 145.374 68.9461C144.859 68.3327 144.324 67.737 143.767 67.159C143.21 66.5825 142.633 66.0237 142.037 65.4842C141.442 64.9447 140.827 64.426 140.194 63.9266C139.561 63.4272 138.911 62.9503 138.243 62.4943C137.577 62.0383 136.894 61.6063 136.197 61.1953C135.499 60.7842 134.788 60.3972 134.064 60.0327C133.338 59.6698 132.602 59.331 131.853 59.0147C131.104 58.7 130.345 58.4109 129.576 58.146C128.806 57.881 128.028 57.6418 127.241 57.4282C126.456 57.2163 125.662 57.0284 124.863 56.8678C124.063 56.7073 123.259 56.5724 122.45 56.4648C121.642 56.3572 120.83 56.2769 120.014 56.2223C119.199 56.1693 118.383 56.142 117.566 56.142C116.751 56.142 115.934 56.1693 115.12 56.2223C114.305 56.2769 113.493 56.3572 112.684 56.4648C111.876 56.5724 111.07 56.7073 110.272 56.8678C109.471 57.0284 108.679 57.2163 107.892 57.4282C107.106 57.6418 106.327 57.881 105.558 58.146C104.79 58.4109 104.031 58.7 103.281 59.0147C102.532 59.331 101.795 59.6698 101.071 60.0327C100.345 60.3972 99.634 60.7842 98.9363 61.1953C98.2403 61.6063 97.5575 62.0383 96.8913 62.4943C96.2234 62.9503 95.5738 63.4272 94.9408 63.9266C94.3077 64.426 93.6929 64.9447 93.0963 65.4842C92.5014 66.0237 91.9247 66.5825 91.3679 67.159C90.811 67.737 90.2741 68.3327 89.7604 68.9461C89.245 69.5579 88.7528 70.1874 88.2838 70.8329C87.8132 71.4784 87.3657 72.1399 86.9431 72.8143C86.5189 73.4887 86.1212 74.1776 85.7467 74.8793C85.1782 74.844 84.6115 74.844 84.0431 74.8793H82.8996C83.0951 73.9207 83.3338 72.9701 83.6122 72.0307C83.8922 71.0914 84.2137 70.1649 84.5767 69.2512C84.9396 68.3392 85.3423 67.4432 85.7848 66.5632C86.2272 65.6849 86.7078 64.8242 87.2265 63.986C87.7452 63.1462 88.3004 62.3289 88.892 61.5373C89.4836 60.7441 90.1084 59.9765 90.768 59.2347C91.4292 58.4944 92.1202 57.7815 92.8428 57.0974C93.567 56.415 94.3193 55.7615 95.0999 55.1417C95.8821 54.5202 96.6891 53.9325 97.5227 53.3786C98.3563 52.8246 99.213 52.3075 100.093 51.8242C100.973 51.3425 101.873 50.8977 102.793 50.4899C103.712 50.082 104.649 49.7127 105.6 49.3835C106.553 49.0543 107.517 48.7637 108.497 48.5148C109.474 48.2659 110.462 48.0572 111.458 47.8902C112.456 47.7232 113.457 47.5979 114.464 47.5128C115.473 47.4293 116.483 47.3876 117.494 47.3876ZM74.9202 93.4576V87.9789C74.9218 87.5373 74.9566 87.1005 75.0262 86.6654C75.0958 86.2286 75.1986 85.8015 75.3345 85.3808C75.4704 84.9617 75.6377 84.5538 75.8383 84.1572C76.0388 83.7622 76.2675 83.3833 76.5277 83.0204C76.7862 82.6575 77.0712 82.3171 77.3844 81.9959C77.6976 81.6764 78.0324 81.3793 78.392 81.1079C78.75 80.8366 79.1278 80.5925 79.5239 80.3773C79.9216 80.1606 80.3326 79.9743 80.7585 79.8185H81.0021C81.9102 79.4781 82.8515 79.2983 83.8243 79.2774C83.1399 81.1176 82.6245 83.0011 82.2765 84.928C81.9301 86.8549 81.7561 88.7978 81.7561 90.7536C81.7561 92.7094 81.9301 94.6507 82.2765 96.5776C82.6245 98.5044 83.1399 100.388 83.8243 102.23C83.531 102.225 83.2377 102.206 82.946 102.174C82.6527 102.141 82.3643 102.096 82.076 102.037C81.7893 101.978 81.5059 101.904 81.2258 101.819C80.9458 101.732 80.6707 101.632 80.4005 101.522C80.1304 101.409 79.8669 101.284 79.6084 101.147C79.3515 101.011 79.1013 100.862 78.8593 100.701C78.6157 100.541 78.3821 100.37 78.1567 100.187C77.9313 100.004 77.7159 99.8115 77.5104 99.6092C77.3049 99.4069 77.1093 99.1949 76.9254 98.9733C76.7398 98.7517 76.5674 98.5237 76.4067 98.2861C76.2443 98.0484 76.0951 97.8043 75.9592 97.5522C75.8217 97.3001 75.6991 97.0432 75.588 96.7799C75.477 96.5165 75.3792 96.25 75.2964 95.977C75.2119 95.7056 75.1422 95.4295 75.0859 95.1501C75.0296 94.8723 74.9881 94.5913 74.96 94.3087C74.9334 94.0244 74.9185 93.7418 74.9202 93.4576ZM83.4349 109.473V106.745H84.0911C84.6695 106.74 85.2462 106.702 85.8196 106.626C86.3267 107.596 86.8851 108.537 87.4983 109.449L83.4349 109.473ZM104.43 114.011C104.635 114.428 104.899 114.811 105.215 115.157C105.534 115.503 105.895 115.8 106.299 116.047C106.704 116.296 107.136 116.484 107.595 116.614C108.056 116.742 108.525 116.808 109.004 116.81H113.869C114.204 116.808 114.535 116.774 114.862 116.71C115.19 116.646 115.508 116.551 115.816 116.428C116.125 116.302 116.418 116.15 116.696 115.97C116.973 115.789 117.23 115.585 117.465 115.355C117.702 115.125 117.913 114.876 118.098 114.608C118.282 114.339 118.44 114.054 118.567 113.756C118.695 113.457 118.791 113.149 118.856 112.832C118.922 112.514 118.954 112.195 118.954 111.871V110.578C118.954 110.255 118.922 109.934 118.856 109.618C118.791 109.3 118.695 108.991 118.567 108.693C118.44 108.394 118.282 108.11 118.098 107.842C117.913 107.572 117.702 107.323 117.465 107.093C117.23 106.865 116.973 106.66 116.696 106.48C116.418 106.299 116.125 106.146 115.816 106.022C115.508 105.897 115.19 105.802 114.862 105.738C114.535 105.674 114.204 105.64 113.869 105.639H109.004C108.72 105.645 108.44 105.672 108.164 105.722C107.885 105.772 107.613 105.844 107.348 105.939C107.083 106.032 106.828 106.148 106.583 106.283C106.337 106.417 106.105 106.572 105.887 106.743C105.666 106.915 105.464 107.105 105.278 107.31C105.091 107.516 104.924 107.734 104.775 107.965C104.627 108.198 104.498 108.441 104.392 108.694C104.284 108.947 104.2 109.207 104.138 109.473H93.1659C92.7583 108.977 92.3672 108.468 91.9926 107.948C91.6181 107.427 91.2601 106.898 90.9204 106.355C90.5807 105.814 90.2592 105.261 89.9559 104.699C89.651 104.137 89.366 103.567 89.1008 102.989C88.834 102.41 88.5871 101.823 88.3584 101.229C88.1314 100.635 87.9226 100.035 87.7336 99.4277C87.5447 98.8208 87.3757 98.2074 87.2282 97.5908C87.079 96.9742 86.9498 96.3528 86.8421 95.7281C86.7343 95.1019 86.6465 94.474 86.5802 93.8446C86.5139 93.2135 86.4675 92.5825 86.441 91.9482C86.4162 91.3156 86.4112 90.6813 86.4261 90.0487C86.4427 89.4144 86.4791 88.7817 86.5371 88.1507C86.5935 87.5196 86.6714 86.8902 86.7708 86.2639C86.8686 85.6377 86.9879 85.0147 87.1271 84.3949C87.2663 83.7767 87.4254 83.1617 87.6044 82.5515C87.7833 81.9429 87.9822 81.3392 88.201 80.7418C88.4214 80.1445 88.6583 79.5536 88.9169 78.9707C89.1737 78.3894 89.4505 77.8146 89.7455 77.2478C90.0404 76.6825 90.3537 76.1254 90.6851 75.5794C91.0165 75.0319 91.3662 74.4971 91.7324 73.9705C92.0987 73.4454 92.4815 72.9316 92.8825 72.4306C93.2819 71.928 93.6995 71.4382 94.1304 70.9629C94.5629 70.486 95.0104 70.0236 95.4727 69.574C95.9351 69.1244 96.4124 68.6892 96.9029 68.2701C97.3934 67.8494 97.8989 67.4448 98.4159 67.0562C98.933 66.6676 99.4633 66.2935 100.005 65.937C100.547 65.5805 101.099 65.2401 101.664 64.9174C102.227 64.5946 102.801 64.2895 103.386 64.0005C103.969 63.7131 104.562 63.4433 105.164 63.1928C105.766 62.9407 106.375 62.7079 106.992 62.4927C107.61 62.2791 108.233 62.0832 108.863 61.9066C109.493 61.7316 110.127 61.5742 110.767 61.4361C111.407 61.2996 112.051 61.1808 112.699 61.0829C113.346 60.9849 113.997 60.9078 114.65 60.8484C115.303 60.7906 115.956 60.7521 116.612 60.7344C117.267 60.7152 117.923 60.7168 118.577 60.7392C119.232 60.7617 119.887 60.8035 120.54 60.8645C121.191 60.9271 121.84 61.0074 122.488 61.1102C123.135 61.2113 123.779 61.3318 124.417 61.4731C125.057 61.6144 125.692 61.7733 126.32 61.9532C126.948 62.133 127.571 62.3321 128.186 62.5489C128.802 62.7673 129.41 63.0033 130.01 63.2586C130.61 63.5123 131.202 63.7853 131.785 64.0776C132.367 64.3682 132.939 64.6765 133.502 65.0025C134.064 65.3284 134.614 65.6704 135.154 66.0301C135.695 66.3898 136.222 66.7656 136.737 67.159C137.252 67.5508 137.754 67.957 138.242 68.3793C138.731 68.8032 139.205 69.24 139.665 69.6912C140.126 70.1424 140.57 70.6081 140.999 71.0866C141.428 71.5651 141.843 72.058 142.239 72.5606C142.637 73.0648 143.018 73.5819 143.381 74.1086C143.745 74.6352 144.09 75.1732 144.418 75.7223C144.748 76.2715 145.058 76.8287 145.349 77.3971C145.641 77.9639 145.915 78.5404 146.168 79.1233C146.422 79.7077 146.657 80.2987 146.872 80.8976C147.088 81.4965 147.283 82.1003 147.459 82.7121C147.636 83.3222 147.792 83.9372 147.926 84.5571C148.062 85.1769 148.178 85.8015 148.273 86.4277C148.367 87.0556 148.442 87.685 148.496 88.3161C148.549 88.9471 148.583 89.5798 148.594 90.214C148.607 90.8467 148.599 91.481 148.569 92.1136C148.54 92.7463 148.49 93.3789 148.42 94.0084C148.349 94.6394 148.258 95.2657 148.147 95.8903C148.036 96.5149 147.903 97.1347 147.751 97.7513C147.598 98.3679 147.426 98.9797 147.234 99.5851C147.041 100.192 146.831 100.791 146.599 101.384C146.367 101.976 146.117 102.562 145.848 103.14C145.578 103.717 145.29 104.287 144.983 104.845C144.675 105.406 144.35 105.957 144.007 106.496C143.664 107.036 143.304 107.566 142.927 108.084C142.549 108.601 142.156 109.107 141.745 109.602C141.334 110.096 140.908 110.576 140.466 111.045C140.023 111.512 139.566 111.967 139.095 112.407C138.623 112.847 138.137 113.272 137.637 113.682C137.138 114.093 136.624 114.486 136.099 114.865C135.574 115.244 135.037 115.607 134.488 115.954C133.938 116.299 133.378 116.628 132.808 116.94C132.236 117.251 131.656 117.547 131.066 117.823C130.476 118.099 129.878 118.358 129.271 118.597C128.665 118.836 128.05 119.058 127.428 119.26C126.807 119.462 126.181 119.645 125.548 119.809C124.913 119.973 124.275 120.118 123.633 120.241C122.99 120.366 122.344 120.471 121.695 120.558C121.045 120.643 120.392 120.707 119.739 120.753C119.084 120.798 118.43 120.824 117.775 120.829C117.119 120.835 116.464 120.821 115.81 120.786C115.155 120.75 114.502 120.696 113.851 120.622C113.2 120.546 112.552 120.453 111.907 120.339C111.263 120.225 110.621 120.09 109.985 119.938C109.35 119.784 108.719 119.612 108.094 119.419C107.469 119.228 106.851 119.016 106.24 118.786C105.63 118.557 105.026 118.31 104.432 118.043C103.837 117.776 103.252 117.492 102.675 117.189C102.098 116.887 101.533 116.567 100.978 116.23C100.423 115.893 99.8792 115.54 99.3473 115.169C98.8153 114.799 98.2949 114.412 97.7878 114.011H104.43ZM108.858 110.249H113.869C113.977 110.249 114.068 110.286 114.144 110.36C114.221 110.432 114.259 110.52 114.259 110.624V111.919C114.259 112.021 114.221 112.111 114.144 112.184C114.068 112.258 113.977 112.294 113.869 112.294H109.223C109.246 112.131 109.246 111.965 109.223 111.8C109.257 111.225 109.095 110.708 108.735 110.249H108.858ZM117.104 126.404H118.127C134.135 126.404 149.048 132.801 153.572 141.596L167.269 168.217C158.95 170.43 150.512 172.077 141.957 173.16C133.401 174.244 124.808 174.751 116.181 174.685C108.016 174.634 99.8908 174.069 91.8037 172.985C83.7149 171.902 75.7355 170.313 67.8655 168.217L81.5374 141.62C86.0632 132.801 100.975 126.404 116.983 126.404H117.104Z" fill="#08CEFF"/>
<defs>
<linearGradient id="paint0_linear_773_2" x1="243.401" y1="195.582" x2="170.857" y2="195.582" gradientUnits="userSpaceOnUse">
<stop stop-color="#08CEFF"/>
<stop stop-color="#08CEFF"/>
<stop offset="0.708333" stop-color="#08CEFF"/>
<stop offset="1" stop-color="#08CEFF"/>
</linearGradient>
<linearGradient id="paint1_linear_773_2" x1="243.401" y1="29.1539" x2="170.857" y2="29.1539" gradientUnits="userSpaceOnUse">
<stop stop-color="#08CEFF"/>
<stop stop-color="#08CEFF"/>
<stop offset="0.708333" stop-color="#08CEFF"/>
<stop offset="1" stop-color="#08CEFF"/>
</linearGradient>
<linearGradient id="paint2_linear_773_2" x1="70.3206" y1="29.1539" x2="-2.22398" y2="29.1539" gradientUnits="userSpaceOnUse">
<stop stop-color="#08CEFF"/>
<stop stop-color="#08CEFF"/>
<stop offset="0.708333" stop-color="#08CEFF"/>
<stop offset="1" stop-color="#08CEFF"/>
</linearGradient>
<linearGradient id="paint3_linear_773_2" x1="70.3206" y1="195.582" x2="-2.22398" y2="195.582" gradientUnits="userSpaceOnUse">
<stop stop-color="#08CEFF"/>
<stop stop-color="#08CEFF"/>
<stop offset="0.708333" stop-color="#08CEFF"/>
<stop offset="1" stop-color="#08CEFF"/>
</linearGradient>
</defs>
</svg>
