<svg width="230" height="216" viewBox="0 0 230 216" fill="none" xmlns="http://www.w3.org/2000/svg">
<path d="M225.48 51.9257H4.2382C2.13257 51.9257 0.424805 50.3212 0.424805 48.3337V17.8178C0.424805 8.91137 8.12505 1.66406 17.5882 1.66406H212.13C221.593 1.66406 229.293 8.91137 229.293 17.8178V48.3337C229.293 50.3212 227.585 51.9257 225.48 51.9257ZM8.0516 44.7446H221.663V17.8178C221.663 12.8692 217.385 8.84223 212.13 8.84223H17.5882C12.3333 8.84223 8.0516 12.8692 8.0516 17.8178V44.7446Z" fill="white"/>
<path d="M202.592 100.708H27.1239C25.0183 100.708 23.3105 99.1038 23.3105 97.1163V64.8059C23.3105 62.8212 25.0183 61.2168 27.1239 61.2168H202.592C204.698 61.2168 206.406 62.8212 206.406 64.8059V97.1163C206.406 99.1038 204.698 100.708 202.592 100.708ZM30.9404 93.5272H198.776V68.395H30.9404V93.5272Z" fill="white"/>
<path d="M80.5268 150.97H27.1239C25.0183 150.97 23.3105 149.365 23.3105 147.378C23.3105 145.393 25.0183 143.789 27.1239 143.789H80.5268C82.6325 143.789 84.3433 145.393 84.3433 147.378C84.3433 149.365 82.6325 150.97 80.5268 150.97Z" fill="white"/>
<path d="M65.2702 136.608H27.1239C25.0183 136.608 23.3105 135.003 23.3105 133.019C23.3105 131.034 25.0183 129.43 27.1239 129.43H65.2702C67.3758 129.43 69.0836 131.034 69.0836 133.019C69.0836 135.003 67.3758 136.608 65.2702 136.608Z" fill="white"/>
<path d="M80.5268 179.691H27.1239C25.0183 179.691 23.3105 178.084 23.3105 176.099C23.3105 174.115 25.0183 172.51 27.1239 172.51H80.5268C82.6325 172.51 84.3433 174.115 84.3433 176.099C84.3433 178.084 82.6325 179.691 80.5268 179.691Z" fill="white"/>
<path d="M65.2702 165.329H27.1239C25.0183 165.329 23.3105 163.725 23.3105 161.74C23.3105 159.755 25.0183 158.148 27.1239 158.148H65.2702C67.3758 158.148 69.0836 159.755 69.0836 161.74C69.0836 163.725 67.3758 165.329 65.2702 165.329Z" fill="white"/>
<path d="M65.2702 194.05H27.1239C25.0183 194.05 23.3105 192.446 23.3105 190.461C23.3105 188.474 25.0183 186.869 27.1239 186.869H65.2702C67.3758 186.869 69.0836 188.474 69.0836 190.461C69.0836 192.446 67.3758 194.05 65.2702 194.05Z" fill="white"/>
<path d="M202.594 197.64H99.6015C97.4959 197.64 95.7881 196.035 95.7881 194.051V115.068C95.7881 113.083 97.4959 111.479 99.6015 111.479H202.594C204.699 111.479 206.407 113.083 206.407 115.068V194.051C206.407 196.035 204.699 197.64 202.594 197.64ZM103.415 190.461H198.777V118.657H103.415V190.461Z" fill="white"/>
<path d="M114.858 197.639C113.781 197.639 112.704 197.21 111.948 196.372C110.586 194.857 110.782 192.593 112.388 191.311L136.716 171.882C138.192 170.707 140.371 170.753 141.785 171.992L163.903 191.423C165.442 192.777 165.528 195.047 164.09 196.499C162.654 197.945 160.239 198.028 158.7 196.675L139.064 179.42L117.325 196.787C116.609 197.36 115.734 197.639 114.858 197.639Z" fill="white"/>
<path d="M130.117 161.74C119.601 161.74 111.044 153.686 111.044 143.789C111.044 133.891 119.601 125.837 130.117 125.837C140.633 125.837 149.19 133.891 149.19 143.789C149.19 153.686 140.633 161.74 130.117 161.74ZM130.117 133.018C123.806 133.018 118.674 137.852 118.674 143.789C118.674 149.725 123.806 154.559 130.117 154.559C136.425 154.559 141.56 149.725 141.56 143.789C141.56 137.852 136.425 133.018 130.117 133.018Z" fill="white"/>
<path d="M152.199 189.637C151.296 189.637 150.39 189.341 149.662 188.73C148.086 187.411 147.951 185.144 149.35 183.66L173.938 157.661C174.635 156.924 175.627 156.492 176.677 156.457C177.76 156.492 178.743 156.814 179.483 157.511L205.29 181.797C206.78 183.202 206.78 185.469 205.29 186.875C203.802 188.278 201.384 188.278 199.894 186.875L176.952 165.274L155.048 188.436C154.292 189.231 153.249 189.637 152.199 189.637Z" fill="white"/>
<path d="M212.13 215.591H17.5882C8.12505 215.591 0.424805 208.343 0.424805 199.437V16.3388C0.424805 7.43236 8.12505 0.185059 17.5882 0.185059H212.13C221.593 0.185059 229.293 7.43236 229.293 16.3388V199.437C229.293 208.343 221.593 215.591 212.13 215.591ZM17.5882 7.36323C12.3333 7.36323 8.0516 11.3901 8.0516 16.3388V199.437C8.0516 204.386 12.3333 208.41 17.5882 208.41H212.13C217.388 208.41 221.663 204.386 221.663 199.437V16.3388C221.663 11.3901 217.385 7.36323 212.13 7.36323H17.5882Z" fill="white"/>
<path d="M42.3837 39.6765H27.1239C25.0183 39.6765 23.3105 38.0721 23.3105 36.0874V21.7253C23.3105 19.7407 25.0183 18.1362 27.1239 18.1362H42.3837C44.4893 18.1362 46.1971 19.7407 46.1971 21.7253V36.0874C46.1971 38.0721 44.4893 39.6765 42.3837 39.6765ZM30.9404 32.4983H38.5703V25.3173H30.9404V32.4983Z" fill="white"/>
<path d="M72.9012 39.6765H57.6415C55.5359 39.6765 53.8281 38.0721 53.8281 36.0874V21.7253C53.8281 19.7407 55.5359 18.1362 57.6415 18.1362H72.9012C75.0069 18.1362 76.7146 19.7407 76.7146 21.7253V36.0874C76.7146 38.0721 75.0069 39.6765 72.9012 39.6765ZM61.458 32.4983H69.0848V25.3173H61.458V32.4983Z" fill="white"/>
<path d="M103.417 39.6765H88.1571C86.0515 39.6765 84.3438 38.0721 84.3438 36.0874V21.7253C84.3438 19.7407 86.0515 18.1362 88.1571 18.1362H103.417C105.522 18.1362 107.23 19.7407 107.23 21.7253V36.0874C107.23 38.0721 105.522 39.6765 103.417 39.6765ZM91.9736 32.4983H99.6004V25.3173H91.9736V32.4983Z" fill="white"/>
</svg>
