<svg width="229" height="217" viewBox="0 0 229 217" fill="none" xmlns="http://www.w3.org/2000/svg">
<path d="M202.185 101.521H26.7171C24.6115 101.521 22.9037 99.9167 22.9037 97.9292V65.6187C22.9037 63.6341 24.6115 62.0297 26.7171 62.0297H202.185C204.291 62.0297 205.999 63.6341 205.999 65.6187V97.9292C205.999 99.9167 204.291 101.521 202.185 101.521ZM30.5335 94.3401H198.369V69.2078H30.5335V94.3401Z" fill="#08CEFF"/>
<path d="M80.12 123.061H26.7171C24.6115 123.061 22.9037 121.457 22.9037 119.469C22.9037 117.485 24.6115 115.88 26.7171 115.88H80.12C82.2256 115.88 83.9364 117.485 83.9364 119.469C83.9364 121.457 82.2256 123.061 80.12 123.061Z" fill="#08CEFF"/>
<path d="M80.12 151.783H26.7171C24.6115 151.783 22.9037 150.178 22.9037 148.191C22.9037 146.206 24.6115 144.602 26.7171 144.602H80.12C82.2256 144.602 83.9364 146.206 83.9364 148.191C83.9364 150.178 82.2256 151.783 80.12 151.783Z" fill="#08CEFF"/>
<path d="M64.8633 137.421H26.7171C24.6115 137.421 22.9037 135.816 22.9037 133.832C22.9037 131.847 24.6115 130.242 26.7171 130.242H64.8633C66.9689 130.242 68.6767 131.847 68.6767 133.832C68.6767 135.816 66.9689 137.421 64.8633 137.421Z" fill="#08CEFF"/>
<path d="M80.12 180.504H26.7171C24.6115 180.504 22.9037 178.897 22.9037 176.912C22.9037 174.927 24.6115 173.323 26.7171 173.323H80.12C82.2256 173.323 83.9364 174.927 83.9364 176.912C83.9364 178.897 82.2256 180.504 80.12 180.504Z" fill="#08CEFF"/>
<path d="M64.8633 166.142H26.7171C24.6115 166.142 22.9037 164.537 22.9037 162.553C22.9037 160.568 24.6115 158.961 26.7171 158.961H64.8633C66.9689 158.961 68.6767 160.568 68.6767 162.553C68.6767 164.537 66.9689 166.142 64.8633 166.142Z" fill="#08CEFF"/>
<path d="M64.8633 194.863H26.7171C24.6115 194.863 22.9037 193.259 22.9037 191.274C22.9037 189.287 24.6115 187.682 26.7171 187.682H64.8633C66.9689 187.682 68.6767 189.287 68.6767 191.274C68.6767 193.259 66.9689 194.863 64.8633 194.863Z" fill="#08CEFF"/>
<path d="M202.186 198.452H99.1939C97.0883 198.452 95.3805 196.848 95.3805 194.863V115.88C95.3805 113.896 97.0883 112.291 99.1939 112.291H202.186C204.292 112.291 206 113.896 206 115.88V194.863C206 196.848 204.292 198.452 202.186 198.452ZM103.007 191.274H198.37V119.469H103.007V191.274Z" fill="#08CEFF"/>
<path d="M114.451 198.452C113.373 198.452 112.296 198.023 111.54 197.185C110.178 195.67 110.374 193.406 111.981 192.124L136.309 172.695C137.784 171.52 139.963 171.566 141.377 172.804L163.495 192.236C165.035 193.59 165.121 195.86 163.682 197.312C162.247 198.758 159.832 198.841 158.293 197.487L138.656 180.233L116.917 197.6C116.201 198.173 115.326 198.452 114.451 198.452Z" fill="#08CEFF"/>
<path d="M129.71 162.553C119.194 162.553 110.637 154.499 110.637 144.602C110.637 134.704 119.194 126.65 129.71 126.65C140.226 126.65 148.783 134.704 148.783 144.602C148.783 154.499 140.226 162.553 129.71 162.553ZM129.71 133.831C123.399 133.831 118.267 138.665 118.267 144.602C118.267 150.538 123.399 155.372 129.71 155.372C136.018 155.372 141.153 150.538 141.153 144.602C141.153 138.665 136.018 133.831 129.71 133.831Z" fill="#08CEFF"/>
<path d="M151.792 190.45C150.889 190.45 149.983 190.154 149.255 189.543C147.679 188.224 147.544 185.957 148.943 184.473L173.531 158.474C174.229 157.737 175.22 157.305 176.27 157.27C177.353 157.305 178.336 157.627 179.076 158.324L204.883 182.61C206.373 184.015 206.373 186.282 204.883 187.688C203.395 189.091 200.978 189.091 199.487 187.688L176.545 166.087L154.641 189.249C153.885 190.044 152.842 190.45 151.792 190.45Z" fill="#08CEFF"/>
<path d="M211.722 216.404H17.1809C7.71783 216.404 0.0175781 209.156 0.0175781 200.25V17.1517C0.0175781 8.24523 7.71783 0.997925 17.1809 0.997925H211.722C221.186 0.997925 228.886 8.24523 228.886 17.1517V200.25C228.886 209.156 221.186 216.404 211.722 216.404ZM17.1809 8.17609C11.926 8.17609 7.64437 12.203 7.64437 17.1517V200.25C7.64437 205.198 11.926 209.222 17.1809 209.222H211.722C216.98 209.222 221.256 205.198 221.256 200.25V17.1517C221.256 12.203 216.977 8.17609 211.722 8.17609H17.1809Z" fill="#08CEFF"/>
<path d="M34.347 36.8975H19.0873C16.9816 36.8975 15.2739 35.293 15.2739 33.3084V18.9463C15.2739 16.9616 16.9816 15.3572 19.0873 15.3572H34.347C36.4526 15.3572 38.1604 16.9616 38.1604 18.9463V33.3084C38.1604 35.293 36.4526 36.8975 34.347 36.8975ZM22.9037 29.7193H30.5336V22.5382H22.9037V29.7193Z" fill="#08CEFF"/>
<path d="M64.8641 36.8975H49.6044C47.4987 36.8975 45.791 35.293 45.791 33.3084V18.9463C45.791 16.9616 47.4987 15.3572 49.6044 15.3572H64.8641C66.9697 15.3572 68.6775 16.9616 68.6775 18.9463V33.3084C68.6775 35.293 66.9697 36.8975 64.8641 36.8975ZM53.4208 29.7193H61.0476V22.5382H53.4208V29.7193Z" fill="#08CEFF"/>
<path d="M95.3801 36.8975H80.1203C78.0147 36.8975 76.3069 35.293 76.3069 33.3084V18.9463C76.3069 16.9616 78.0147 15.3572 80.1203 15.3572H95.3801C97.4857 15.3572 99.1935 16.9616 99.1935 18.9463V33.3084C99.1935 35.293 97.4857 36.8975 95.3801 36.8975ZM83.9368 29.7193H91.5636V22.5382H83.9368V29.7193Z" fill="#08CEFF"/>
<mask id="mask0_887_4724" style="mask-type:luminance" maskUnits="userSpaceOnUse" x="0" y="0" width="229" height="52">
<path d="M0.0175781 0.565796H228.886V51.2595H0.0175781V0.565796Z" fill="white"/>
</mask>
<g mask="url(#mask0_887_4724)">
<path d="M225.072 54.0775H3.83098C1.72534 54.0775 0.0175781 52.4731 0.0175781 50.4855V19.9697C0.0175781 11.0632 7.71783 3.81592 17.1809 3.81592H211.722C221.186 3.81592 228.886 11.0632 228.886 19.9697V50.4855C228.886 52.4731 227.178 54.0775 225.072 54.0775ZM7.64437 46.8965H221.256V19.9697C221.256 15.021 216.977 10.9941 211.722 10.9941H17.1809C11.926 10.9941 7.64437 15.021 7.64437 19.9697V46.8965Z" fill="#08CEFF"/>
</g>
</svg>
