<svg width="145" height="78" viewBox="0 0 145 78" fill="none" xmlns="http://www.w3.org/2000/svg">
<path fill-rule="evenodd" clip-rule="evenodd" d="M53.2337 8.31807L52.8173 8.69306V17.0808L53.2337 17.6388C56.2044 21.6136 56.2837 27.6344 53.4022 31.1023L52.8173 31.8073V38.7131L54.0796 40.489C54.7703 41.47 55.8277 42.9549 56.4258 43.7949C58.544 46.7678 58.8678 47.5718 58.8777 49.8457C58.8777 50.8776 58.8315 51.6426 58.7423 51.9846C58.5076 52.8576 58.0814 54.0365 57.8467 54.4535L57.6253 54.8435L57.9888 55.1225C60.2888 56.8924 61.5213 57.0634 71.8082 57.0214L79.2466 56.9944L80.0562 56.2595V52.6686L79.6531 52.2996L79.2466 51.9336L72.403 51.8796C65.6156 51.8286 65.5462 51.8226 64.8027 51.6006C61.7725 50.6947 59.7633 48.3757 58.8579 44.7369C58.7323 44.2539 58.5803 43.6419 58.5043 43.3779C58.4019 42.9999 58.3556 38.944 58.3094 25.8255C58.24 7.5291 58.2763 8.54606 57.698 8.13208C57.437 7.94608 57.2718 7.93408 55.5336 7.93408H53.6566L53.2337 8.31807ZM93.641 29.1554C84.6528 29.9083 77.981 37.9691 79.7588 45.9338C82.1447 56.5895 95.8748 61.1643 104.893 54.3065C105.441 53.8895 105.914 53.5506 105.94 53.5506C105.967 53.5506 105.99 54.1805 105.99 54.9545C105.99 57.1174 106.026 57.1504 108.359 57.1504H109.879L110.504 56.5835V30.1453L110.061 29.6354H108.263C105.92 29.6354 106.063 29.5094 106.016 31.5883C105.98 33.2322 105.967 33.2772 105.56 32.8783C102.91 30.2803 98.1219 28.7864 93.6443 29.1614L93.641 29.1554ZM98.2607 33.4482C102.259 34.6482 104.827 37.2041 106.013 41.152C106.72 43.5309 105.785 47.2988 103.931 49.5307C98.6968 55.8275 88.866 54.7895 85.2707 47.5568C81.3648 39.691 89.5236 30.8323 98.2607 33.4482ZM51.5352 43.7469C51.5352 46.9808 52.9396 50.5237 54.5852 52.7526C55.0974 53.4486 55.1866 53.4786 55.3915 53.0376C56.5448 50.5327 56.1945 47.6888 54.4266 45.1898C53.9805 44.5659 52.1134 42.4449 51.9053 42.3219C51.8326 42.2799 51.5352 42.8199 51.5352 43.7469Z" fill="black"/>
<mask id="mask0_898_1566" style="mask-type:luminance" maskUnits="userSpaceOnUse" x="113" y="28" width="32" height="30">
<path d="M113.187 28.231H144.818V57.414H113.187V28.231Z" fill="white"/>
</mask>
<g mask="url(#mask0_898_1566)">
<path fill-rule="evenodd" clip-rule="evenodd" d="M130.291 28.9814C139.349 29.7284 146.074 37.7501 144.279 45.6758C141.877 56.2775 128.038 60.8313 118.947 54.0066C118.395 53.5896 117.919 53.2536 117.893 53.2536C117.866 53.2536 117.84 53.8806 117.84 54.6546C117.84 56.8055 117.804 56.8385 115.454 56.8385H113.924L113.607 56.5565L113.293 56.2745V29.9654L113.514 29.7104L113.739 29.4554H115.553C117.913 29.4554 117.767 29.3324 117.817 31.4023C117.85 33.0373 117.866 33.0823 118.276 32.6863C120.946 30.0974 125.774 28.6124 130.285 28.9844L130.291 28.9814ZM125.635 33.2533C121.604 34.4442 119.013 36.9881 117.82 40.918C117.106 43.2819 118.048 47.0318 119.918 49.2547C125.196 55.5215 135.099 54.4866 138.724 47.2928C142.66 39.4631 134.438 30.6493 125.635 33.2533Z" fill="black"/>
</g>
<mask id="mask1_898_1566" style="mask-type:luminance" maskUnits="userSpaceOnUse" x="0" y="0" width="49" height="59">
<path d="M0.738525 0.617188H48.0489V58.1823H0.738525V0.617188Z" fill="white"/>
</mask>
<g mask="url(#mask1_898_1566)">
<path fill-rule="evenodd" clip-rule="evenodd" d="M37.1506 55.5183L38.4195 54.7083C42.6162 52.6264 45.8546 48.7445 46.9154 44.5177C47.4309 42.4657 47.6027 39.1869 47.2789 37.5759C47.0542 36.4509 46.7006 35.056 46.6114 34.948C46.5651 34.897 46.4726 34.675 46.3966 34.462C45.1673 30.8561 40.0321 26.7163 34.1799 24.6043C33.8957 24.5023 33.2546 24.2594 32.7589 24.0614C31.5032 23.5694 29.8576 23.0024 28.0831 22.4534C27.257 22.1984 26.4573 21.9434 26.3086 21.8894C26.1599 21.8324 25.4824 21.6014 24.805 21.3794C24.1243 21.1515 23.318 20.8635 23.0107 20.7375C22.7034 20.6115 22.3333 20.4675 22.1912 20.4165C19.8218 19.6005 18.3513 17.4466 18.9296 15.6376C19.9706 12.4037 27.399 12.2778 33.3438 15.3946C33.6974 15.5806 34.1336 15.8086 34.312 15.8956C34.4905 15.9856 35.115 16.3756 35.7065 16.7596C38.023 18.2776 37.3357 18.6435 42.9566 12.8657C47.1797 8.52188 47.1401 8.80087 43.9215 6.57794C40.2502 4.04903 34.5896 1.7421 30.6011 1.15712C30.1583 1.09112 29.6263 0.998125 29.4214 0.953127C27.9344 0.620138 24.1606 0.518142 21.4278 0.731135C11.597 1.50511 4.98799 6.11896 3.35227 13.3457C3.0086 14.8757 3.05156 18.5475 3.43488 20.0175C4.27752 23.2394 5.60923 25.2313 8.61962 27.7512C8.68571 27.8052 8.86416 27.9342 9.01947 28.0422C9.17147 28.1502 9.56801 28.4172 9.89516 28.6452C13.203 30.9191 16.7718 32.5571 21.0941 33.778C22.3564 34.135 24.3754 34.738 25.5485 35.107C29.5998 36.379 31.5825 37.8339 31.87 39.7598C32.3723 43.0837 29.5932 44.8387 24.0582 44.6887C19.0982 44.5597 15.4236 43.1107 11.5573 39.7748C10.0604 38.4789 10.1166 38.4609 6.4717 41.6078C-0.282674 47.4366 0.0576873 46.9116 1.84211 48.7235C5.00451 51.9304 9.66384 54.6543 14.5347 56.1393C18.391 57.3123 22.3597 57.7832 26.8208 57.5822C26.9133 57.5822 27.0091 57.5732 27.1016 57.5672L37.1506 55.5123M30.9778 57.3543L32.0551 57.1233C33.5223 56.8083 34.7416 56.4453 36.0535 55.9383L37.1572 55.5123" fill="black"/>
</g>
<path fill-rule="evenodd" clip-rule="evenodd" d="M52.3085 31.552L52.8108 30.967C55.7121 27.6011 55.6559 21.4603 52.6819 17.4885C52.4572 17.1915 52.2523 16.8615 52.2259 16.7595C52.1796 16.5885 52.1763 16.5885 52.1598 16.7505C52.1433 16.9695 51.9351 16.9215 51.7798 16.6635C51.7203 16.5615 51.4427 16.2345 51.1717 15.9375C49.1924 13.7956 48.6009 11.6086 49.0635 8.11976C49.1097 7.75678 48.8388 7.86777 48.2208 8.46775C47.6525 9.02273 46.3241 10.7447 46.1621 11.1497C46.1258 11.2427 45.9672 11.5096 45.8119 11.7526C45.6599 11.9926 45.4418 12.4066 45.3294 12.6766C45.2171 12.9466 45.0684 13.2526 44.9957 13.3576C44.9263 13.4656 44.8073 13.7296 44.7346 13.9426C44.6652 14.1556 44.5297 14.4856 44.4372 14.6715C44.3447 14.8575 44.2323 15.1395 44.1927 15.3015C44.1497 15.4665 44.0274 15.8595 43.9316 16.1805C42.8643 19.5584 42.8808 23.4343 43.9779 27.1691C44.2753 28.1771 44.9626 30.154 45.0584 30.28C45.0981 30.334 45.2237 30.619 45.3261 30.91C45.7953 32.218 48.016 36.2438 49.0767 37.7198C49.2122 37.9058 49.5459 38.3648 49.8169 38.7397C50.4844 39.6637 50.795 40.0657 51.5452 40.9627L52.1796 41.7246L52.2424 41.9226L52.3019 42.0486L53.247 43.0686C56.3433 46.4165 57.1033 48.7954 56.1186 52.0833C55.7848 53.1963 55.6659 53.3163 55.3024 52.9413L55.0149 52.6503L55.2991 53.0073C55.6559 53.4663 55.6526 53.5083 55.1801 54.0722C54.0103 55.4612 53.5807 55.5122 42.3917 55.5182H35.3829L34.2825 55.9442C32.9673 56.4512 31.5596 56.4812 30.0924 56.7991L27.2307 57.3601L41.0798 57.3361C49.7409 57.3211 53.0223 57.2851 53.2205 57.2011C53.3692 57.1411 53.7526 57.0211 54.083 56.9311C55.1074 56.6551 56.2408 55.8062 56.6242 55.0112L56.7993 54.6482L57.1331 54.8582C57.3511 54.9932 57.3974 54.9932 57.2652 54.8582C57.0769 54.6572 57.0769 54.6392 57.2884 54.2732C57.5164 53.8652 57.9493 52.6773 58.1806 51.8133C58.2698 51.4713 58.3161 50.7033 58.3128 49.6744C58.3028 47.3945 57.9493 46.5425 55.8113 43.5486C53.3131 40.0567 52.5233 38.9077 52.2688 38.6737C52.0111 38.4428 52.0111 38.4428 52.0111 38.4428C52.0111 38.4428 52.0111 38.4428 51.7137 38.0348C51.7137 37.9748 51.4361 37.5158 51.1024 37.0118C50.7719 36.5108 50.3258 35.8388 50.1143 35.5178C49.2849 34.2579 47.1766 30.343 47.0279 29.782C46.985 29.62 46.8891 29.4011 46.8131 29.2961C46.6281 29.0321 45.878 26.6921 45.5905 25.4892C45.0981 23.3923 45.0948 19.8374 45.5806 17.5754C46.0068 15.6135 46.6842 13.2376 46.8693 13.0696C46.9288 13.0156 46.9817 12.8656 46.9817 12.7456C46.9817 12.4426 47.2791 12.4576 47.365 12.7636C47.4013 12.8986 47.398 13.0846 47.3518 13.1776C46.8594 14.2066 46.5389 20.5423 46.8594 22.9753C47.2262 25.7742 47.821 27.7631 48.8256 29.524C49.3345 30.415 50.2795 31.756 50.7653 32.284L51.0098 32.5479L51.4692 32.149C51.7203 31.93 51.9252 31.714 51.9252 31.663C51.9252 31.612 51.9714 31.579 52.0309 31.579" fill="black"/>
<path d="M114.32 17.7915H116.881C117.017 17.7915 117.149 17.8125 117.275 17.8605C117.4 17.9085 117.513 17.9745 117.608 18.0615C117.704 18.1485 117.777 18.2505 117.83 18.3645C117.883 18.4755 117.909 18.5955 117.909 18.7185V37.7468C117.909 37.8698 117.883 37.9868 117.83 38.1008C117.777 38.2148 117.704 38.3168 117.608 38.4038C117.513 38.4908 117.4 38.5568 117.275 38.6048C117.149 38.6498 117.017 38.6738 116.881 38.6738H114.32C114.182 38.6738 114.053 38.6498 113.927 38.6048C113.802 38.5568 113.689 38.4908 113.593 38.4038C113.498 38.3168 113.425 38.2148 113.372 38.1008C113.319 37.9868 113.293 37.8698 113.293 37.7468V18.7185C113.293 18.5955 113.319 18.4755 113.372 18.3645C113.425 18.2505 113.498 18.1485 113.593 18.0615C113.689 17.9745 113.802 17.9085 113.927 17.8605C114.053 17.8125 114.182 17.7915 114.32 17.7915Z" fill="black"/>
<path d="M3.79175 77.6579L11.2698 62.7154H13.6028L21.104 77.6579H18.6289L11.9538 63.9094H12.8956L6.22055 77.6579H3.79175ZM6.97728 73.9231L7.61174 72.2161H16.904L17.588 73.9231H6.97728ZM38.284 77.8289C37.025 77.8289 35.8222 77.6579 34.6755 77.3189C33.5289 76.962 32.6234 76.506 31.9625 75.951L32.8349 74.286C33.4661 74.784 34.2658 75.198 35.2406 75.525C36.2154 75.852 37.2299 76.014 38.284 76.014C39.2423 76.014 40.0222 75.915 40.6203 75.717C41.2151 75.516 41.6579 75.246 41.9388 74.904C42.223 74.55 42.3651 74.151 42.3651 73.7101C42.3651 73.1971 42.1767 72.7861 41.7967 72.4711C41.4365 72.1591 40.9574 71.9101 40.3592 71.7241C39.7777 71.5261 39.1333 71.3551 38.4261 71.2111C37.719 71.0701 37.0019 70.9052 36.2782 70.7222C35.571 70.5212 34.9201 70.2722 34.3219 69.9722C33.7403 69.6752 33.2678 69.2762 32.9076 68.7782C32.5441 68.2652 32.3624 67.6113 32.3624 66.8133C32.3624 66.0453 32.5838 65.3403 33.0233 64.7014C33.4793 64.0444 34.1732 63.5254 35.0985 63.1414C36.0436 62.7424 37.2365 62.5444 38.6839 62.5444C39.6455 62.5444 40.5939 62.6584 41.5389 62.8864C42.4807 63.1144 43.3002 63.4414 43.9909 63.8674L43.2143 65.5773C42.5039 65.1483 41.757 64.8424 40.9739 64.6564C40.1874 64.4584 39.4241 64.3594 38.6839 64.3594C37.7586 64.3594 36.9953 64.4644 36.3972 64.6804C35.799 64.8934 35.3595 65.1783 35.0754 65.5323C34.8077 65.8893 34.6755 66.2883 34.6755 66.7293C34.6755 67.2543 34.8573 67.6743 35.2175 67.9893C35.5942 68.3012 36.0733 68.5502 36.6549 68.7362C37.253 68.9192 37.9073 69.0902 38.6145 69.2492C39.3216 69.3902 40.0288 69.5522 40.736 69.7382C41.4596 69.9242 42.1139 70.1672 42.6955 70.4642C43.2903 70.7642 43.7728 71.1631 44.133 71.6611C44.4932 72.1591 44.6749 72.7981 44.6749 73.5811C44.6749 74.337 44.4469 75.039 43.9909 75.696C43.5349 76.335 42.8277 76.854 41.8694 77.2529C40.9243 77.6369 39.7314 77.8289 38.284 77.8289ZM62.8397 77.8289C61.5807 77.8289 60.3778 77.6579 59.2312 77.3189C58.0812 76.962 57.1791 76.506 56.5182 75.951L57.3906 74.286C58.0184 74.784 58.8214 75.198 59.7963 75.525C60.7711 75.852 61.7856 76.014 62.8397 76.014C63.798 76.014 64.5746 75.915 65.1727 75.717C65.7708 75.516 66.2103 75.246 66.4945 74.904C66.7786 74.55 66.9174 74.151 66.9174 73.7101C66.9174 73.1971 66.7291 72.7861 66.3524 72.4711C65.9922 72.1591 65.5097 71.9101 64.9149 71.7241C64.3333 71.5261 63.6889 71.3551 62.9785 71.2111C62.2713 71.0701 61.5576 70.9052 60.8339 70.7222C60.1267 70.5212 59.4724 70.2722 58.8776 69.9722C58.2927 69.6752 57.8235 69.2762 57.46 68.7782C57.0998 68.2652 56.918 67.6113 56.918 66.8133C56.918 66.0453 57.1394 65.3403 57.5789 64.7014C58.035 64.0444 58.7256 63.5254 59.6542 63.1414C60.5993 62.7424 61.7922 62.5444 63.2395 62.5444C64.1978 62.5444 65.1495 62.6584 66.0946 62.8864C67.0364 63.1144 67.8526 63.4414 68.5465 63.8674L67.7667 65.5773C67.0595 65.1483 66.3127 64.8424 65.5262 64.6564C64.7398 64.4584 63.9797 64.3594 63.2395 64.3594C62.311 64.3594 61.5476 64.4644 60.9528 64.6804C60.3547 64.8934 59.9152 65.1783 59.631 65.5323C59.3634 65.8893 59.2312 66.2883 59.2312 66.7293C59.2312 67.2543 59.4096 67.6743 59.7731 67.9893C60.1498 68.3012 60.629 68.5502 61.2106 68.7362C61.8087 68.9192 62.4597 69.0902 63.1701 69.2492C63.8773 69.3902 64.5845 69.5522 65.2916 69.7382C66.0153 69.9242 66.6663 70.1672 67.2479 70.4642C67.846 70.7642 68.3251 71.1631 68.6886 71.6611C69.0488 72.1591 69.2306 72.7981 69.2306 73.5811C69.2306 74.337 69.0026 75.039 68.5465 75.696C68.0905 76.335 67.3834 76.854 66.4218 77.2529C65.48 77.6369 64.2838 77.8289 62.8397 77.8289ZM84.7286 69.1622H93.2179V70.9772H84.7286V69.1622ZM84.9401 75.801H94.5628V77.6579H82.5807V62.7154H94.2324V64.5724H84.9401V75.801ZM111.564 77.6579V64.5724H105.904V62.7154H119.561V64.5724H113.901V77.6579H111.564ZM136.639 77.8289C135.383 77.8289 134.18 77.6579 133.03 77.3189C131.884 76.962 130.978 76.506 130.317 75.951L131.193 74.286C131.821 74.784 132.624 75.198 133.599 75.525C134.574 75.852 135.588 76.014 136.639 76.014C137.6 76.014 138.377 75.915 138.975 75.717C139.573 75.516 140.013 75.246 140.297 74.904C140.578 74.55 140.72 74.151 140.72 73.7101C140.72 73.1971 140.532 72.7861 140.155 72.4711C139.791 72.1591 139.312 71.9101 138.714 71.7241C138.133 71.5261 137.488 71.3551 136.781 71.2111C136.074 71.0701 135.36 70.9052 134.636 70.7222C133.926 70.5212 133.275 70.2722 132.677 69.9722C132.095 69.6752 131.623 69.2762 131.262 68.7782C130.902 68.2652 130.721 67.6113 130.721 66.8133C130.721 66.0453 130.939 65.3403 131.381 64.7014C131.837 64.0444 132.528 63.5254 133.457 63.1414C134.398 62.7424 135.595 62.5444 137.042 62.5444C138 62.5444 138.952 62.6584 139.894 62.8864C140.839 63.1144 141.655 63.4414 142.346 63.8674L141.569 65.5773C140.862 65.1483 140.115 64.8424 139.329 64.6564C138.542 64.4584 137.779 64.3594 137.042 64.3594C136.113 64.3594 135.35 64.4644 134.752 64.6804C134.154 64.8934 133.714 65.1783 133.434 65.5323C133.166 65.8893 133.03 66.2883 133.03 66.7293C133.03 67.2543 133.212 67.6743 133.572 67.9893C133.952 68.3012 134.431 68.5502 135.013 68.7362C135.611 68.9192 136.262 69.0902 136.969 69.2492C137.676 69.3902 138.384 69.5522 139.094 69.7382C139.814 69.9242 140.469 70.1672 141.05 70.4642C141.648 70.7642 142.128 71.1631 142.488 71.6611C142.851 72.1591 143.03 72.7981 143.03 73.5811C143.03 74.337 142.805 75.039 142.346 75.696C141.893 76.335 141.183 76.854 140.224 77.2529C139.282 77.6369 138.086 77.8289 136.639 77.8289Z" fill="black"/>
</svg>
