<svg width="273" height="258" viewBox="0 0 273 258" fill="none" xmlns="http://www.w3.org/2000/svg">
<mask id="mask0_896_960" style="mask-type:luminance" maskUnits="userSpaceOnUse" x="0" y="0" width="219" height="223">
<path d="M0.477783 0.292969H218.612V222.196H0.477783V0.292969Z" fill="white"/>
</mask>
<g mask="url(#mask0_896_960)">
<path d="M9.73441 221.468H147.982C147.076 218.857 146.624 216.249 146.17 213.438H9.73441V97.0319H208.845V145.4C210.428 145.4 211.785 145.2 213.368 145.2C214.955 145.2 216.312 145.2 217.895 145.4V97.0319C217.895 92.6151 213.823 89.0029 208.845 89.0029H136.439V80.9738C136.439 77.7622 134.18 74.7541 131.01 73.549L145.493 9.32311C145.944 7.11632 144.361 5.10986 141.872 4.50569C139.383 4.10504 137.12 5.51051 136.439 7.7173L121.96 72.948H105.218L119.471 5.51051C119.923 3.30372 118.34 1.09375 115.851 0.693097C113.362 0.292441 111.098 1.69792 110.647 3.90471L109.29 9.72377L108.158 4.10504C107.707 1.89825 105.444 0.492769 102.955 0.893425C100.466 1.29408 98.8827 3.50405 99.3339 5.51051L104.763 31.4006L96.3937 71.1387L82.1403 7.91763C81.6855 5.71084 79.1965 4.30536 76.7075 4.70602C74.2185 5.10986 72.6356 7.31665 73.0869 9.52344L87.5695 73.7493C84.4001 74.7541 82.1403 77.7622 82.1403 80.9738V89.0029H9.73441C4.75646 89.0029 0.68457 92.6151 0.68457 97.0319V213.438C0.68457 217.855 4.75646 221.468 9.73441 221.468ZM91.1901 80.9738H127.389V89.0029H91.1901V80.9738Z" fill="#A8F6A7"/>
</g>
<path d="M91.1906 179.32V171.291C91.1906 164.871 88.2468 159.048 83.7236 154.635C81.9115 156.842 79.6517 158.648 76.9336 160.053C80.103 162.861 82.1407 166.877 82.1407 171.291V175.307H45.9378V171.291C45.9378 166.877 47.9755 162.861 51.1413 160.053C48.6524 158.648 46.1634 156.842 44.3549 154.635C39.8282 159.048 36.8879 164.871 36.8879 171.291V179.32C36.8879 181.526 38.9221 183.333 41.4111 183.333H86.6638C89.1528 183.333 91.1906 181.526 91.1906 179.32Z" fill="#A8F6A7"/>
<path d="M48.2017 141.187C48.2017 149.013 55.2138 155.236 64.038 155.236C72.8622 155.236 79.8779 149.013 79.8779 141.187C79.8779 133.359 72.8622 127.136 64.038 127.136C55.2138 127.136 48.2017 133.359 48.2017 141.187ZM70.828 141.187C70.828 144.599 67.8843 147.207 64.038 147.207C60.1917 147.207 57.2515 144.599 57.2515 141.187C57.2515 137.775 60.1917 135.165 64.038 135.165C67.8843 135.165 70.828 137.775 70.828 141.187Z" fill="#A8F6A7"/>
<path d="M64.0382 105.058H27.8388C22.8609 105.058 18.7854 108.673 18.7854 113.087V141.187C18.7854 143.393 20.8231 145.2 23.3121 145.2C25.8011 145.2 27.8388 143.393 27.8388 141.187V113.087H64.0382C66.5271 113.087 68.5649 111.281 68.5649 109.074C68.5649 106.864 66.5271 105.058 64.0382 105.058Z" fill="#A8F6A7"/>
<path d="M195.27 145.2C197.759 145.2 199.797 143.393 199.797 141.187V113.087C199.797 108.673 195.721 105.058 190.743 105.058H154.544C152.055 105.058 150.017 106.864 150.017 109.074C150.017 111.281 152.055 113.087 154.544 113.087H190.743V141.187C190.743 143.393 192.781 145.2 195.27 145.2Z" fill="#A8F6A7"/>
<path d="M18.7854 197.384C18.7854 201.798 22.8609 205.41 27.8388 205.41H64.0382C66.5271 205.41 68.5649 203.604 68.5649 201.397C68.5649 199.191 66.5271 197.384 64.0382 197.384H27.8388V169.284C27.8388 167.078 25.8011 165.271 23.3121 165.271C20.8231 165.271 18.7854 167.078 18.7854 169.284V197.384Z" fill="#A8F6A7"/>
<path d="M118.341 129.145C118.341 131.352 120.379 133.158 122.868 133.158H168.121C170.61 133.158 172.644 131.352 172.644 129.145C172.644 126.935 170.61 125.129 168.121 125.129H122.868C120.379 125.129 118.341 126.935 118.341 129.145Z" fill="#A8F6A7"/>
<path d="M122.868 151.222H168.121C170.61 151.222 172.644 149.416 172.644 147.206C172.644 144.999 170.61 143.193 168.121 143.193H122.868C120.379 143.193 118.341 144.999 118.341 147.206C118.341 149.416 120.379 151.222 122.868 151.222Z" fill="#A8F6A7"/>
<path d="M122.868 177.312C120.379 177.312 118.341 179.119 118.341 181.325C118.341 183.535 120.379 185.342 122.868 185.342H140.968C143.457 185.342 145.494 183.535 145.494 181.325C145.494 179.119 143.457 177.312 140.968 177.312H122.868Z" fill="#A8F6A7"/>
<path d="M109.291 129.145C109.291 129.406 109.262 129.67 109.205 129.927C109.148 130.185 109.062 130.436 108.947 130.681C108.833 130.923 108.693 131.155 108.528 131.374C108.364 131.593 108.177 131.797 107.966 131.981C107.755 132.169 107.525 132.334 107.278 132.481C107.031 132.627 106.773 132.751 106.498 132.853C106.222 132.954 105.939 133.031 105.649 133.082C105.359 133.132 105.062 133.158 104.764 133.158C104.467 133.158 104.173 133.132 103.883 133.082C103.593 133.031 103.31 132.954 103.035 132.853C102.759 132.751 102.497 132.627 102.25 132.481C102.003 132.334 101.778 132.169 101.566 131.981C101.355 131.797 101.169 131.593 101.004 131.374C100.839 131.155 100.7 130.923 100.585 130.681C100.47 130.436 100.384 130.185 100.327 129.927C100.27 129.67 100.241 129.406 100.241 129.145C100.241 128.881 100.27 128.62 100.327 128.36C100.384 128.102 100.47 127.851 100.585 127.609C100.7 127.364 100.839 127.132 101.004 126.913C101.169 126.693 101.355 126.493 101.566 126.305C101.778 126.118 102.003 125.952 102.25 125.806C102.497 125.66 102.759 125.536 103.035 125.434C103.31 125.336 103.593 125.259 103.883 125.205C104.173 125.154 104.467 125.129 104.764 125.129C105.062 125.129 105.359 125.154 105.649 125.205C105.939 125.259 106.222 125.336 106.498 125.434C106.773 125.536 107.031 125.66 107.278 125.806C107.525 125.952 107.755 126.118 107.966 126.305C108.177 126.493 108.364 126.693 108.528 126.913C108.693 127.132 108.833 127.364 108.947 127.609C109.062 127.851 109.148 128.102 109.205 128.36C109.262 128.62 109.291 128.881 109.291 129.145Z" fill="#A8F6A7"/>
<path d="M109.291 147.206C109.291 147.47 109.262 147.731 109.205 147.992C109.148 148.249 109.062 148.5 108.947 148.742C108.833 148.987 108.693 149.219 108.528 149.439C108.364 149.655 108.177 149.858 107.966 150.046C107.755 150.23 107.525 150.399 107.278 150.545C107.031 150.691 106.773 150.815 106.498 150.914C106.222 151.016 105.939 151.092 105.649 151.143C105.359 151.197 105.062 151.222 104.764 151.222C104.467 151.222 104.173 151.197 103.883 151.143C103.593 151.092 103.31 151.016 103.035 150.914C102.759 150.815 102.497 150.691 102.25 150.545C102.003 150.399 101.778 150.23 101.566 150.046C101.355 149.858 101.169 149.655 101.004 149.439C100.839 149.219 100.7 148.987 100.585 148.742C100.47 148.5 100.384 148.249 100.327 147.992C100.27 147.731 100.241 147.47 100.241 147.206C100.241 146.942 100.27 146.682 100.327 146.424C100.384 146.166 100.47 145.915 100.585 145.67C100.7 145.429 100.839 145.197 101.004 144.977C101.169 144.758 101.355 144.554 101.566 144.37C101.778 144.182 102.003 144.017 102.25 143.871C102.497 143.724 102.759 143.6 103.035 143.499C103.31 143.397 103.593 143.321 103.883 143.27C104.173 143.219 104.467 143.193 104.764 143.193C105.062 143.193 105.359 143.219 105.649 143.27C105.939 143.321 106.222 143.397 106.498 143.499C106.773 143.6 107.031 143.724 107.278 143.871C107.525 144.017 107.755 144.182 107.966 144.37C108.177 144.554 108.364 144.758 108.528 144.977C108.693 145.197 108.833 145.429 108.947 145.67C109.062 145.915 109.148 146.166 109.205 146.424C109.262 146.682 109.291 146.942 109.291 147.206Z" fill="#A8F6A7"/>
<path d="M109.291 165.271C109.291 165.535 109.262 165.796 109.205 166.053C109.148 166.311 109.062 166.562 108.947 166.807C108.833 167.052 108.693 167.281 108.528 167.5C108.364 167.719 108.177 167.923 107.966 168.107C107.755 168.295 107.525 168.46 107.278 168.607C107.031 168.756 106.773 168.877 106.498 168.979C106.222 169.08 105.939 169.157 105.649 169.208C105.359 169.258 105.062 169.284 104.764 169.284C104.467 169.284 104.173 169.258 103.883 169.208C103.593 169.157 103.31 169.08 103.035 168.979C102.759 168.877 102.497 168.756 102.25 168.607C102.003 168.46 101.778 168.295 101.566 168.107C101.355 167.923 101.169 167.719 101.004 167.5C100.839 167.281 100.7 167.052 100.585 166.807C100.47 166.562 100.384 166.311 100.327 166.053C100.27 165.796 100.241 165.535 100.241 165.271C100.241 165.007 100.27 164.746 100.327 164.489C100.384 164.228 100.47 163.977 100.585 163.735C100.7 163.49 100.839 163.258 101.004 163.042C101.169 162.823 101.355 162.619 101.566 162.431C101.778 162.247 102.003 162.078 102.25 161.932C102.497 161.786 102.759 161.662 103.035 161.563C103.31 161.462 103.593 161.385 103.883 161.334C104.173 161.284 104.467 161.255 104.764 161.255C105.062 161.255 105.359 161.284 105.649 161.334C105.939 161.385 106.222 161.462 106.498 161.563C106.773 161.662 107.031 161.786 107.278 161.932C107.525 162.078 107.755 162.247 107.966 162.431C108.177 162.619 108.364 162.823 108.528 163.042C108.693 163.258 108.833 163.49 108.947 163.735C109.062 163.977 109.148 164.228 109.205 164.489C109.262 164.746 109.291 165.007 109.291 165.271Z" fill="#A8F6A7"/>
<path d="M167.215 161.255H122.868C120.379 161.255 118.341 163.064 118.341 165.271C118.341 167.478 120.379 169.284 122.868 169.284H159.067C161.556 166.476 164.275 163.665 167.215 161.255Z" fill="#A8F6A7"/>
<mask id="mask1_896_960" style="mask-type:luminance" maskUnits="userSpaceOnUse" x="154" y="153" width="119" height="105">
<path d="M154.436 153.002H272.406V257.592H154.436V153.002Z" fill="white"/>
</mask>
<g mask="url(#mask1_896_960)">
<path d="M154.543 205.41C154.543 234.111 181.015 257.594 213.368 257.594C245.725 257.594 272.198 234.111 272.198 205.41C272.198 176.712 245.725 153.229 213.368 153.229C181.015 153.229 154.543 176.712 154.543 205.41ZM263.148 205.41C263.148 229.698 240.747 249.565 213.368 249.565C185.993 249.565 163.593 229.698 163.593 205.41C163.593 181.126 185.993 161.255 213.368 161.255C240.747 161.255 263.148 181.126 263.148 205.41Z" fill="#A8F6A7"/>
</g>
<path d="M184.863 204.409C183.051 202.803 180.111 203.003 178.528 204.609C176.716 206.215 176.945 208.822 178.753 210.228L191.875 221.268C193.462 222.674 195.721 223.275 197.759 223.275C199.797 223.275 201.831 222.674 203.414 221.468L243.689 190.16C245.501 188.754 245.727 186.144 244.144 184.538C242.557 182.932 239.617 182.732 237.808 184.137L197.534 215.245L184.863 204.409Z" fill="#A8F6A7"/>
</svg>
